<?xml version="1.0" encoding="UTF-8"?>
<svg width="158px" height="221px" viewBox="0 0 158 221" version="1.1" xmlns="http://www.w3.org/2000/svg" xmlns:xlink="http://www.w3.org/1999/xlink">
    <title>Mocha Remote</title>
    <g id="mocha-remote" stroke="none" stroke-width="1" fill="none" fill-rule="evenodd">
        <g id="mocha" transform="translate(0.000000, 43.000000)">
            <path d="M152.47386,136.90113 L83.77104,176.59611 C80.812995,178.31367 77.187012,178.31367 74.228974,176.59611 L5.52614,136.90113 C2.568102,135.18356 0.75511,132.03468 0.75511,128.69496 L0.75511,49.305021 C0.75511,45.869879 2.568102,42.81642 5.52614,41.098849 L74.228974,1.403878 C77.187012,-0.313693 80.812995,-0.313693 83.77103,1.403878 L152.47385,41.098849 C155.43189,42.81642 157.24489,45.9653 157.24489,49.305021 L157.24489,128.69496 C157.14949,132.03468 155.33647,135.18356 152.47385,136.90113 L152.47386,136.90113 Z" id="XMLID_229_" fill="#8D6748"></path>
            <path d="M96.9044979,153.340645 C96.0561306,155.63475 94.748473,157.710207 93.1,159.465199 L93.1,166.613636 C93.0999265,167.339515 92.4330183,167.999927 91.7,168 L67.9,168 C67.1669817,167.999927 66.5000735,167.339515 66.5,166.613636 L66.5,162.996094 C64.7407845,161.239086 62.3161357,158.726614 60.2,155.825994 C59.1528112,154.390584 58.1761042,152.882768 57.4285734,151.334345 L16.881192,127.9316 C15.259042,126.97739 14.209414,125.1644 14.209414,123.25598 L14.209414,54.743995 C14.209414,52.835583 15.259042,51.022591 16.881192,50.068385 L76.232806,15.812389 C77.091591,15.335286 78.045798,15.049024 78.904583,15.049024 C79.85879,15.049024 80.717575,15.335286 81.576364,15.812389 L140.92797,50.068385 C142.55013,51.022591 143.59974,52.835583 143.59974,54.743995 L143.59974,123.25598 C143.59974,125.1644 142.55012,126.97739 140.92797,127.9316 L96.9044979,153.340645 Z M74.801498,13.331454 L15.449883,47.58745 C12.873526,49.018759 11.346797,51.785956 11.346797,54.648574 L11.346797,123.16057 C11.346797,126.1186 12.873526,128.79038 15.449883,130.22169 L63.9059347,158.189084 L67.7344415,162.38999 L67.7344415,166.667278 L91.5578156,166.667278 L91.5578156,160.186818 L92.3541234,159.083188 L142.35927,130.22169 C144.93563,128.79038 146.46236,126.02319 146.46236,123.16057 L146.46236,54.648574 C146.46236,51.690536 144.93563,49.018759 142.35927,47.58745 L83.00768,13.331454 C81.7672,12.568089 80.335892,12.186406 78.904583,12.186406 C77.473274,12.186406 76.041965,12.568089 74.801498,13.331454 Z" id="XMLID_262_" fill="#FFFFFF" fill-rule="nonzero"></path>
            <g id="XMLID_228_" transform="translate(66.738450, 41.671372)" fill="#FFFFFF" fill-rule="nonzero">
                <g id="XMLID_223_" transform="translate(0.000000, 11.450472)">
                    <g id="XMLID_295_">
                        <path d="M20.61085,1.52672963 C20.61085,1.04962662 20.2291676,0.572523612 19.656644,0.572523612 L10.6871074,0.572523612 L1.71757084,0.572523612 C1.24046783,0.572523612 0.763364816,0.95420602 0.763364816,1.52672963 C0.763364816,4.7710301 1.24046783,15.9352405 6.01149793,21.3742148 C6.20233913,21.5650561 6.39318033,21.6604767 6.67944214,21.6604767 L14.6947727,21.6604767 C14.9810345,21.6604767 15.1718757,21.5650561 15.3627169,21.3742148 C20.133747,16.0306611 20.61085,4.8664507 20.61085,1.52672963 Z M13.5497255,18.8932792 L7.91990997,18.8932792 C7.63364816,18.8932792 7.44280696,18.7978586 7.25196575,18.6070174 C4.00766528,14.7901933 3.62598288,7.15654515 3.53056227,4.48476829 C3.53056227,4.00766528 3.91224468,3.53056227 4.48476829,3.53056227 L10.782528,3.53056227 L17.0802878,3.53056227 C17.5573908,3.53056227 18.0344938,3.91224468 18.0344938,4.48476829 C18.0344938,7.15654515 17.5573908,14.6947727 14.3130903,18.6070174 C14.0268285,18.7978586 13.8359873,18.8932792 13.5497255,18.8932792 Z" id="path8"></path>
                    </g>
                </g>
                <path d="M12.5000989,10.1145838 C12.5000989,10.1145838 15.9352405,8.11075117 13.8359873,4.48476829 C12.5955195,2.57635625 12.0229959,0.95420602 12.5000989,0.286261806 C11.259631,1.81299144 9.16037779,3.43514167 11.4504722,6.87028334 C12.2138371,7.72906876 12.5955195,9.5420602 12.5000989,10.1145838 Z" id="XMLID_225_"></path>
                <path d="M8.68327478,10.4008456 C8.68327478,10.4008456 10.9733692,9.06495719 9.5420602,6.58402154 C8.68327478,5.34355371 8.30159237,4.19850649 8.68327478,3.81682408 C7.82448936,4.8664507 6.48860094,5.91607732 8.01533057,8.30159237 C8.49243358,8.77869538 8.68327478,10.0191632 8.68327478,10.4008456 Z" id="XMLID_224_"></path>
                <path d="M16.5077641,21.4696354 C16.1260817,24.0459917 15.3627169,27.0040304 13.7405667,28.9124424 C13.5497255,29.1032836 13.3588843,29.1987042 13.1680431,29.1987042 L8.39701298,29.1987042 C8.20617177,29.1987042 7.91990997,29.1032836 7.82448936,28.9124424 C6.67944214,27.4811334 5.91607732,25.5727213 5.43897431,23.5688887 C5.43897431,23.5688887 10.9733692,24.3322535 14.1222491,23.1872063 C16.4123435,22.3284209 16.5077641,21.4696354 16.5077641,21.4696354 Z" id="XMLID_227_"></path>
            </g>
            <g id="g13" transform="translate(19.982355, 77.931201)" fill="#FFFFFF" fill-rule="nonzero">
                <polygon id="path15" points="0.572523612 0.667944214 4.10308589 0.667944214 9.92374261 9.6374808 15.7443993 0.667944214 19.2749616 0.667944214 19.2749616 19.7520646 15.9352405 19.7520646 15.9352405 6.10691853 9.92374261 15.0764551 9.82832201 15.0764551 3.91224468 6.20233913 3.91224468 19.8474852 0.572523612 19.8474852 0.572523612 0.667944214"></polygon>
                <path d="M36.5460906,20.0383264 C35.1147815,20.0383264 33.7788931,19.7520646 32.5384253,19.2749616 C31.2979575,18.7978586 30.2483308,18.0344938 29.3895454,17.1757084 C28.53076,16.3169229 27.8628158,15.2672963 27.3857128,14.0268285 C26.9086098,12.8817813 26.622348,11.5458928 26.622348,10.2100044 L26.622348,10.1145838 C26.622348,8.77869538 26.9086098,7.53822756 27.3857128,6.29775973 C27.8628158,5.15271251 28.53076,4.10308589 29.484966,3.14887987 C30.3437514,2.29009445 31.3933781,1.52672963 32.6338459,1.04962662 C33.8743137,0.47710301 35.2102021,0.286261806 36.6415112,0.286261806 C38.0728202,0.286261806 39.4087086,0.572523612 40.6491765,1.04962662 C41.8896443,1.52672963 42.9392709,2.29009445 43.7980563,3.14887987 C44.6568417,4.00766528 45.3247859,5.05729191 45.801889,6.29775973 C46.278992,7.44280696 46.5652538,8.77869538 46.5652538,10.1145838 L46.5652538,10.2100044 C46.5652538,11.5458928 46.278992,12.7863607 45.801889,14.0268285 C45.3247859,15.1718757 44.6568417,16.2215023 43.7026357,17.1757084 C42.8438503,18.0344938 41.7942237,18.7978586 40.5537559,19.2749616 C39.313288,19.8474852 37.9773996,20.0383264 36.5460906,20.0383264 Z M36.5460906,16.9848672 C37.5002966,16.9848672 38.359082,16.794026 39.1224468,16.4123435 C39.8858116,16.0306611 40.5537559,15.5535581 41.1262795,14.9810345 C41.6988031,14.4085109 42.0804855,13.6451461 42.4621679,12.8817813 C42.7484297,12.0229959 42.9392709,11.1642104 42.9392709,10.305425 L42.9392709,10.2100044 C42.9392709,9.25579839 42.7484297,8.39701298 42.4621679,7.53822756 C42.1759061,6.67944214 41.6988031,6.01149793 41.1262795,5.34355371 C40.5537559,4.7710301 39.8858116,4.29392709 39.1224468,3.91224468 C38.359082,3.53056227 37.5002966,3.33972107 36.5460906,3.33972107 C35.5918845,3.33972107 34.7330991,3.53056227 33.9697343,3.91224468 C33.2063695,4.29392709 32.5384253,4.7710301 31.9659017,5.34355371 C31.3933781,5.91607732 31.0116957,6.67944214 30.6300132,7.44280696 C30.3437514,8.30159237 30.1529102,9.16037779 30.1529102,10.0191632 L30.1529102,10.1145838 C30.1529102,11.0687898 30.3437514,11.9275753 30.6300132,12.7863607 C30.916275,13.6451461 31.3933781,14.3130903 31.9659017,14.9810345 C32.5384253,15.5535581 33.2063695,16.0306611 33.9697343,16.4123435 C34.7330991,16.794026 35.6873051,16.9848672 36.5460906,16.9848672 Z" id="path17"></path>
                <path d="M62.6913355,20.0383264 C61.2600265,20.0383264 60.0195587,19.7520646 58.8745114,19.2749616 C57.7294642,18.7978586 56.6798376,18.0344938 55.8210522,17.1757084 C54.9622668,16.3169229 54.2943225,15.2672963 53.8172195,14.0268285 C53.3401165,12.7863607 53.0538547,11.5458928 53.0538547,10.2100044 L53.0538547,10.1145838 C53.0538547,8.77869538 53.3401165,7.44280696 53.8172195,6.29775973 C54.2943225,5.15271251 54.9622668,4.10308589 55.8210522,3.14887987 C56.6798376,2.29009445 57.7294642,1.52672963 58.969932,1.04962662 C60.2103999,0.572523612 61.4508677,0.286261806 62.9775973,0.286261806 C63.8363827,0.286261806 64.5997476,0.381682408 65.3631124,0.47710301 C66.1264772,0.667944214 66.6990008,0.858785418 67.366945,1.04962662 C67.9394686,1.33588843 68.5119922,1.62215023 68.9890952,2.00383264 C69.4661983,2.38551505 69.9433013,2.76719746 70.4204043,3.24430047 L68.2257304,5.72523612 C67.4623656,5.05729191 66.6990008,4.48476829 65.8402154,4.00766528 C64.98143,3.53056227 64.0272239,3.33972107 62.8821767,3.33972107 C61.9279707,3.33972107 61.1646059,3.53056227 60.4012411,3.91224468 C59.6378763,4.29392709 58.969932,4.7710301 58.3974084,5.34355371 C57.8248848,5.91607732 57.4432024,6.67944214 57.06152,7.44280696 C56.7752582,8.30159237 56.584417,9.16037779 56.584417,10.0191632 L56.584417,10.1145838 C56.584417,11.0687898 56.7752582,11.9275753 57.06152,12.7863607 C57.3477818,13.6451461 57.8248848,14.3130903 58.3974084,14.9810345 C58.969932,15.5535581 59.6378763,16.1260817 60.4012411,16.4123435 C61.1646059,16.6986053 62.0233913,16.9848672 62.8821767,16.9848672 C64.0272239,16.9848672 65.0768506,16.794026 65.8402154,16.3169229 C66.6035802,15.8398199 67.4623656,15.2672963 68.321151,14.5039315 L70.5158249,16.6986053 C70.0387219,17.271129 69.5616189,17.6528114 68.9890952,18.1299144 C68.4165716,18.6070174 67.844048,18.8932792 67.2715244,19.179541 C66.6990008,19.4658028 65.935636,19.7520646 65.2676918,19.8474852 C64.4089064,20.0383264 63.5501209,20.0383264 62.6913355,20.0383264 Z" id="path19"></path>
                <polygon id="path21" points="77.195267 0.667944214 80.5349881 0.667944214 80.5349881 8.58785418 89.6953659 8.58785418 89.6953659 0.667944214 93.035087 0.667944214 93.035087 19.7520646 89.6953659 19.7520646 89.6953659 11.736734 80.5349881 11.736734 80.5349881 19.7520646 77.195267 19.7520646"></polygon>
                <path d="M107.82528,0.572523612 L110.87874,0.572523612 L119.275753,19.7520646 L115.74519,19.7520646 L113.836778,15.1718757 L104.867242,15.1718757 L102.863409,19.7520646 L99.4282673,19.7520646 L107.82528,0.572523612 Z M112.59631,12.2138371 L109.35201,4.5801889 L106.107709,12.2138371 L112.59631,12.2138371 Z" id="path23"></path>
            </g>
            <rect id="XMLID_444_" fill="#FFFFFF" fill-rule="nonzero" x="18.169365" y="103.69476" width="121.66127" height="1.0496266"></rect>
            <path d="M139.83063,67.816618 L88.11265,67.816618 C88.11265,68.1983 88.01725,68.484561 88.01725,68.866244 L139.83063,68.866244 L139.83063,67.816618 Z" id="XMLID_446_" fill="#FFFFFF" fill-rule="nonzero"></path>
            <path d="M18.169364,67.816618 L18.169364,68.866244 L66.929292,68.866244 C66.929292,68.484561 66.833872,68.1983 66.833872,67.816618 L18.169364,67.816618 Z" id="XMLID_448_" fill="#FFFFFF" fill-rule="nonzero"></path>
        </g>
        <g id="hand" transform="translate(56.000000, 150.000000)" fill="#FFFFFF" fill-rule="nonzero">
            <path d="M11.2,0 C8.1218158,0 5.6,2.49724989 5.6,5.54545455 L5.6,26.6225142 C2.4380832,27.2879272 0,29.9490591 0,33.2727273 L0,38.8181818 C0,42.2783375 1.9351556,45.7215102 4.2,48.8259943 C6.3161357,51.7266136 8.7407845,54.2390858 10.5,55.9960938 L10.5,59.6136364 C10.5000735,60.3395149 11.1669817,60.9999272 11.9,61 L35.7,61 C36.4330183,60.9999272 37.0999265,60.3395149 37.1,59.6136364 L37.1,52.4651989 C40.1231005,49.2467557 42,44.9505534 42,40.2045455 L42,31.1931818 C42,28.1449772 39.4781842,25.6477273 36.4,25.6477273 C35.3213413,25.6477273 34.3699482,26.0279791 33.5125,26.5575284 C33.2568012,23.7390026 30.9094758,21.4886364 28,21.4886364 C26.9213413,21.4886364 25.9699482,21.8688882 25.1125,22.3984375 C24.8568012,19.5799117 22.5094758,17.3295455 19.6,17.3295455 C18.5602564,17.3295455 17.6370418,17.679526 16.8,18.1743608 L16.8,5.54545455 C16.8,2.49724989 14.2781842,0 11.2,0 Z M11.2,2.77272727 C12.7754158,2.77272727 14,3.98538648 14,5.54545455 L14,22.875 C14,23.6406671 14.6268017,24.2613636 15.4,24.2613636 C16.1731983,24.2613636 16.8,23.6406671 16.8,22.875 C16.8,21.3149319 18.0245842,20.1022727 19.6,20.1022727 C21.1754158,20.1022727 22.4,21.3149319 22.4,22.875 L22.4,27.0340909 C22.4,27.7997581 23.0268017,28.4204545 23.8,28.4204545 C24.5731983,28.4204545 25.2,27.7997581 25.2,27.0340909 C25.2,25.4740228 26.4245842,24.2613636 28,24.2613636 C29.5754158,24.2613636 30.8,25.4740228 30.8,27.0340909 L30.8,31.1931818 C30.8,31.958849 31.4268017,32.5795455 32.2,32.5795455 C32.9731983,32.5795455 33.6,31.958849 33.6,31.1931818 C33.6,29.6331068 34.8245842,28.4204545 36.4,28.4204545 C37.9754158,28.4204545 39.2,29.6331068 39.2,31.1931818 L39.2,40.2045455 C39.2,44.4427284 37.4972451,48.2376909 34.715625,50.9921875 C34.4505903,51.2517099 34.2971629,51.6195482 34.3,51.9886364 L34.3,58.2272727 L13.3,58.2272727 L13.3,55.4545455 C13.30287,55.0854573 13.1494097,54.717619 12.884375,54.4580966 C11.1543355,52.7448977 8.5851556,50.0937199 6.475,47.2013494 C4.3648444,44.3089097 2.8,41.1773568 2.8,38.8181818 L2.8,33.2727273 C2.8,31.4321687 3.9542818,29.9119593 5.6,29.3519176 L5.6,37.4318182 C5.589542,38.1642514 6.2602883,38.8379264 7,38.8379264 C7.7397117,38.8379264 8.4104601,38.1642514 8.4,37.4318182 L8.4,5.54545455 C8.4,3.98538648 9.6245842,2.77272727 11.2,2.77272727 Z" id="Shape"></path>
        </g>
        <g id="signal" transform="translate(46.000000, 0.000000)" fill="#8D6748" fill-rule="nonzero">
            <path d="M19.8937584,31.7125339 C18.7020805,32.9217044 18.7020805,34.8827903 19.8937584,36.0926244 C21.0847825,37.3024585 23.0164381,37.3024585 24.2081159,36.0926244 C29.3317423,30.8909351 37.6689114,30.8915988 42.7918841,36.0926244 C43.3873962,36.6972097 44.1685564,36.9998341 44.9490629,36.9998341 C45.7295694,36.9998341 46.5107295,36.6972097 47.1062416,36.0926244 C48.2979195,34.8827903 48.2979195,32.922368 47.1062416,31.7125339 C39.6038354,24.095822 27.3968183,24.095822 19.8937584,31.7125339 Z" id="Shape"></path>
            <path d="M33,13 C32.9993375,13 33,13 33,13 C24.2764011,13 16.0741776,16.4335252 9.90578225,22.666622 C8.69807258,23.8869996 8.69807258,25.8651761 9.90578225,27.0848842 C10.5093058,27.6947383 11.3009751,28 12.0919819,28 C12.8829886,28 13.6746579,27.6947383 14.2781815,27.0848842 C19.2792787,22.0313295 25.9279755,19.2484938 33,19.2484938 C40.0720245,19.2484938 46.7207213,22.0319989 51.7218185,27.0848842 C52.9288657,28.3045923 54.8871706,28.3045923 56.0942178,27.0848842 C57.3019274,25.8645066 57.3019274,23.8869996 56.0942178,22.666622 C49.9244974,16.4328558 41.7229365,13 33,13 Z" id="Shape"></path>
            <path d="M66.086899,13.6258743 C57.3822028,4.839209 45.8095743,0 33.4999165,0 C33.4992483,0 33.4999165,0 33.4992483,0 C21.1902587,0 9.61696191,4.839209 0.913602194,13.6258743 C-0.304534065,14.8549011 -0.304534065,16.8481911 0.913602194,18.0778926 C2.13173845,19.3069194 4.10628187,19.3069194 5.32374992,18.0778926 C12.8497338,10.4804559 22.8560918,6.29623318 33.4999165,6.29623318 C44.1437412,6.29623318 54.1500991,10.4804559 61.6767512,18.0778926 C62.2854853,18.692406 63.0833211,19 63.8818251,19 C64.6796609,19 65.4781649,18.692406 66.086899,18.0778926 C67.304367,16.8488657 67.304367,14.8555757 66.086899,13.6258743 Z" id="Shape"></path>
        </g>
        <path d="M80.3910763,164 L80.3910763,155.410156 L84.041467,155.410156 C84.9594403,155.410156 85.6264258,155.487304 86.0424435,155.641602 C86.4584612,155.795899 86.7914657,156.070311 87.041467,156.464844 C87.2914682,156.859377 87.416467,157.310544 87.416467,157.818359 C87.416467,158.462894 87.2270157,158.995115 86.8481076,159.415039 C86.4691994,159.834963 85.9027988,160.099609 85.1488888,160.208984 C85.5238907,160.427735 85.8334579,160.667967 86.0775998,160.929688 C86.3217416,161.191408 86.6508399,161.656247 87.0649045,162.324219 L88.1137326,164 L86.0395138,164 L84.7856076,162.130859 C84.3402928,161.462887 84.0356084,161.041993 83.8715451,160.868164 C83.7074818,160.694335 83.5336554,160.575196 83.3500607,160.510742 C83.166466,160.446289 82.8754533,160.414062 82.4770138,160.414062 L82.1254513,160.414062 L82.1254513,164 L80.3910763,164 Z M82.1254513,159.042969 L83.4086545,159.042969 C84.2406899,159.042969 84.7602159,159.007813 84.9672482,158.9375 C85.1742805,158.867187 85.3363882,158.746095 85.4535763,158.574219 C85.5707644,158.402343 85.6293576,158.187501 85.6293576,157.929688 C85.6293576,157.640624 85.5522099,157.407227 85.3979123,157.229492 C85.2436146,157.051757 85.0258434,156.939453 84.744592,156.892578 C84.6039662,156.873047 84.1820955,156.863281 83.478967,156.863281 L82.1254513,156.863281 L82.1254513,159.042969 Z M90.7655182,164 L90.7655182,155.410156 L97.1346588,155.410156 L97.1346588,156.863281 L92.4998932,156.863281 L92.4998932,158.767578 L96.8123932,158.767578 L96.8123932,160.214844 L92.4998932,160.214844 L92.4998932,162.552734 L97.2987213,162.552734 L97.2987213,164 L90.7655182,164 Z M100.460273,164 L100.460273,155.410156 L103.055976,155.410156 L104.614569,161.269531 L106.155585,155.410156 L108.757148,155.410156 L108.757148,164 L107.145819,164 L107.145819,157.238281 L105.440741,164 L103.770819,164 L102.071601,157.238281 L102.071601,164 L100.460273,164 Z M111.842527,159.757812 C111.842527,158.882808 111.973385,158.14844 112.235105,157.554688 C112.430419,157.117185 112.697017,156.724611 113.03491,156.376953 C113.372802,156.029295 113.742916,155.771485 114.145261,155.603516 C114.68042,155.376952 115.297602,155.263672 115.996824,155.263672 C117.262455,155.263672 118.27514,155.656246 119.03491,156.441406 C119.794679,157.226566 120.174558,158.318352 120.174558,159.716797 C120.174558,161.103523 119.797609,162.188473 119.043699,162.97168 C118.289789,163.754887 117.281986,164.146484 116.020261,164.146484 C114.742911,164.146484 113.727296,163.75684 112.973386,162.977539 C112.219476,162.198238 111.842527,161.125007 111.842527,159.757812 Z M113.629636,159.699219 C113.629636,160.67188 113.854243,161.409177 114.303464,161.911133 C114.752685,162.413088 115.322992,162.664062 116.014402,162.664062 C116.705812,162.664062 117.273189,162.415042 117.71655,161.916992 C118.159912,161.418943 118.381589,160.67188 118.381589,159.675781 C118.381589,158.691401 118.165771,157.957034 117.734128,157.472656 C117.302486,156.988279 116.729249,156.746094 116.014402,156.746094 C115.299555,156.746094 114.723388,156.991208 114.285886,157.481445 C113.848384,157.971682 113.629636,158.710933 113.629636,159.699219 Z M125.175953,164 L125.175953,156.863281 L122.627125,156.863281 L122.627125,155.410156 L129.453297,155.410156 L129.453297,156.863281 L126.910328,156.863281 L126.910328,164 L125.175953,164 Z M132.286723,164 L132.286723,155.410156 L138.655864,155.410156 L138.655864,156.863281 L134.021098,156.863281 L134.021098,158.767578 L138.333598,158.767578 L138.333598,160.214844 L134.021098,160.214844 L134.021098,162.552734 L138.819926,162.552734 L138.819926,164 L132.286723,164 Z" id="REMOTE" fill="#FFFFFF"></path>
    </g>
</svg>
